<?xml version="1.0" encoding="UTF-8" standalone="no"?>
<!-- Created with Inkscape (http://www.inkscape.org/) -->

<svg
   width="115.88989mm"
   height="91.25515mm"
   viewBox="0 0 115.88989 91.25515"
   version="1.1"
   id="svg1"
   inkscape:version="1.3 (0e150ed, 2023-07-21)"
   sodipodi:docname="EChordOpen.svg"
   xmlns:inkscape="http://www.inkscape.org/namespaces/inkscape"
   xmlns:sodipodi="http://sodipodi.sourceforge.net/DTD/sodipodi-0.dtd"
   xmlns="http://www.w3.org/2000/svg"
   xmlns:svg="http://www.w3.org/2000/svg">
  <sodipodi:namedview
     id="namedview1"
     pagecolor="#ffffff"
     bordercolor="#000000"
     borderopacity="0.25"
     inkscape:showpageshadow="2"
     inkscape:pageopacity="0.0"
     inkscape:pagecheckerboard="0"
     inkscape:deskcolor="#d1d1d1"
     inkscape:document-units="mm"
     inkscape:zoom="1"
     inkscape:cx="218.5"
     inkscape:cy="172"
     inkscape:window-width="1461"
     inkscape:window-height="924"
     inkscape:window-x="0"
     inkscape:window-y="25"
     inkscape:window-maximized="1"
     inkscape:current-layer="layer1" />
  <defs
     id="defs1">
    <rect
       x="278.49301"
       y="329.37997"
       width="299.88519"
       height="65.529121"
       id="rect25" />
  </defs>
  <g
     inkscape:label="Layer 1"
     inkscape:groupmode="layer"
     id="layer1"
     transform="translate(-38.072718,-93.853725)">
    <text
       xml:space="preserve"
       transform="scale(0.26458333)"
       id="text25"
       style="font-size:26.6667px;font-family:'Padauk Book';-inkscape-font-specification:'Padauk Book, ';letter-spacing:3px;white-space:pre;shape-inside:url(#rect25);display:inline;fill:#008000;fill-opacity:1;stroke:none;stroke-width:1.00157;stroke-dasharray:none" />
    <g
       id="g47">
      <g
         id="g26"
         transform="translate(-34.87919,0.00303148)">
        <path
           id="rect1"
           style="fill:#502d16;fill-opacity:0.433543;stroke-width:0.215253"
           d="m 78.011963,110.86019 h 65.890877 v 74.24565 H 78.011963 Z" />
        <path
           id="rect8"
           style="fill:#e6e6e6;fill-opacity:0.433543;stroke-width:0.214533"
           d="M 78.107147,123.9098 H 143.822 v 1.22349 H 78.107147 Z" />
        <path
           id="rect12"
           style="fill:#e6e6e6;fill-opacity:0.433543;stroke-width:0.214533"
           d="m 78.153542,136.50516 h 65.714848 v 1.22349 H 78.153542 Z" />
        <path
           id="rect13"
           style="fill:#e6e6e6;fill-opacity:0.433543;stroke-width:0.214533"
           d="M 78.199936,149.10051 H 143.91479 V 150.324 H 78.199936 Z" />
        <path
           id="rect14"
           style="fill:#e6e6e6;fill-opacity:0.433543;stroke-width:0.214533"
           d="M 78.014351,161.69586 H 143.7292 v 1.22349 H 78.014351 Z" />
        <path
           id="rect15"
           style="fill:#e6e6e6;fill-opacity:0.433543;stroke-width:0.214533"
           d="M 78.060745,174.29121 H 143.7756 v 1.22349 H 78.060745 Z" />
        <path
           id="rect2"
           style="fill:#806600;stroke-width:0.265"
           d="m 81.489258,111.26601 h 1.218224 v 73.83983 h -1.218224 z" />
        <path
           id="rect3"
           style="fill:#806600;stroke-width:0.265"
           d="m 92.995033,111.26601 h 1.218224 v 73.83983 h -1.218224 z" />
        <path
           id="rect4"
           style="fill:#806600;stroke-width:0.265"
           d="m 104.50081,111.26601 h 1.21822 v 73.83983 h -1.21822 z" />
        <path
           id="rect5"
           style="fill:#806600;stroke-width:0.265"
           d="m 116.00658,111.26601 h 1.21822 v 73.83983 h -1.21822 z" />
        <path
           id="rect6"
           style="fill:#806600;stroke-width:0.265"
           d="m 127.51235,111.26601 h 1.21823 v 73.83983 h -1.21823 z" />
        <path
           id="rect7"
           style="fill:#806600;stroke-width:0.265"
           d="m 139.01813,111.26601 h 1.21822 v 73.83983 h -1.21822 z" />
        <path
           id="path15"
           style="fill:#2b1100;stroke-width:0.264999"
           d="m 112.64432,143.65036 a 1.7327269,1.8352447 0 0 1 -1.73273,1.83524 1.7327269,1.8352447 0 0 1 -1.73273,-1.83524 1.7327269,1.8352447 0 0 1 1.73273,-1.83524 1.7327269,1.8352447 0 0 1 1.73273,1.83524 z" />
        <path
           id="ellipse15"
           style="fill:#2b1100;stroke-width:0.264999"
           d="m 112.43734,168.32925 a 1.7327269,1.8352447 0 0 1 -1.73273,1.83525 1.7327269,1.8352447 0 0 1 -1.73272,-1.83525 1.7327269,1.8352447 0 0 1 1.73272,-1.83524 1.7327269,1.8352447 0 0 1 1.73273,1.83524 z" />
        <path
           id="rect16"
           style="fill:#ececec;stroke-width:0.254595"
           d="M 77.972054,108.15987 H 144.0581 v 2.6499 H 77.972054 Z" />
        <path
           style="font-size:7.18955px;font-family:'Padauk Book';-inkscape-font-specification:'Padauk Book, ';letter-spacing:0.808823px;fill:#008000;fill-opacity:0.622142;stroke-width:0.270032"
           d="m 71.304042,152.99961 q -0.512537,0 -0.835505,-0.17552 -0.322968,-0.18255 -0.477431,-0.47743 -0.147442,-0.30191 -0.147442,-0.64594 h 0.716147 q 0.02106,0.18957 0.09127,0.37212 0.07723,0.17552 0.231695,0.28786 0.154463,0.10531 0.414242,0.10531 0.20361,0 0.386157,-0.0983 0.182547,-0.0983 0.294884,-0.27382 0.112337,-0.17553 0.112337,-0.38616 0,-0.51956 -0.231695,-0.7021 -0.231694,-0.18255 -0.730189,-0.18255 v -0.54062 q 0.463389,0 0.674021,-0.16851 0.210631,-0.17552 0.210631,-0.61785 0,-0.24573 -0.119358,-0.38615 -0.112336,-0.14745 -0.280841,-0.20362 -0.161484,-0.0632 -0.315947,-0.0632 -0.596789,0 -0.688063,0.73018 h -0.695083 q 0.05617,-0.60381 0.40722,-0.93379 0.358074,-0.32999 0.961883,-0.32999 0.428284,0 0.744231,0.16148 0.322968,0.16148 0.498494,0.4353 0.182548,0.27383 0.182548,0.61786 0,0.44232 -0.168506,0.667 -0.168505,0.21765 -0.400199,0.35105 0.182547,0.0913 0.322968,0.22467 0.147442,0.12638 0.231694,0.34403 0.08425,0.21766 0.08425,0.57573 0,0.37914 -0.196589,0.68104 -0.19659,0.29488 -0.5336,0.46339 -0.329989,0.1685 -0.74423,0.1685 z"
           id="text17"
           transform="scale(1.0474554,0.9546946)"
           aria-label="3" />
        <path
           style="font-size:7.18955px;font-family:'Padauk Book';-inkscape-font-specification:'Padauk Book, ';letter-spacing:0.808823px;fill:#008000;fill-opacity:0.622142;stroke-width:0.270032"
           d="m 71.128232,178.97027 q -0.67402,0 -1.07422,-0.30893 -0.393178,-0.31594 -0.40722,-0.88465 h 0.709125 q 0,0.32999 0.196589,0.49147 0.19659,0.16149 0.519558,0.16149 0.315947,0 0.547641,-0.27382 0.238716,-0.27382 0.238716,-0.75125 0,-0.45637 -0.161484,-0.72317 -0.161484,-0.27382 -0.547642,-0.27382 -0.308926,0 -0.498494,0.17552 -0.189568,0.16851 -0.315947,0.43531 h -0.610831 l 0.09127,-2.64693 h 2.457365 v 0.57572 h -1.790366 l -0.07723,1.34804 q 0.161484,-0.18957 0.358073,-0.28786 0.20361,-0.10532 0.554662,-0.10532 0.393179,0 0.667,0.21063 0.280841,0.20361 0.421262,0.54062 0.147442,0.33701 0.147442,0.73019 0,0.29489 -0.112336,0.57573 -0.105316,0.28084 -0.301905,0.51254 -0.189569,0.22467 -0.449347,0.36509 -0.259779,0.1334 -0.561684,0.1334 z"
           id="text18"
           transform="scale(1.0474554,0.9546946)"
           aria-label="5" />
        <g
           id="g25"
           transform="translate(0.20107018,6.3234205)"
           style="opacity:0.697545">
          <path
             style="font-size:6.83672px;font-family:'Padauk Book';-inkscape-font-specification:'Padauk Book, ';letter-spacing:0.76913px;fill:#008000;stroke-width:0.256781"
             d="M 83.693726,97.492279 V 93.1993 h 2.697299 v 0.560824 h -2.043004 v 1.255179 h 1.962887 v 0.540796 h -1.962887 v 1.375355 h 2.103093 v 0.560825 z"
             id="text19"
             transform="scale(0.96898333,1.0320095)"
             aria-label="E" />
          <path
             style="font-size:6.83672px;font-family:'Padauk Book';-inkscape-font-specification:'Padauk Book, ';letter-spacing:0.76913px;fill:#008000;stroke-width:0.256781"
             d="M 94.702249,97.492279 96.451488,93.1993 h 0.714384 l 1.775945,4.292979 h -0.687678 l -0.440648,-1.088267 h -2.002945 l -0.433972,1.088267 z m 1.34865,-1.635739 h 1.515562 l -0.761119,-1.916151 z"
             id="text20"
             transform="scale(0.96898333,1.0320095)"
             aria-label="A" />
          <path
             style="font-size:6.83672px;font-family:'Padauk Book';-inkscape-font-specification:'Padauk Book, ';letter-spacing:0.76913px;fill:#008000;stroke-width:0.256781"
             d="M 107.19296,97.492279 V 93.1993 h 1.32194 q 0.58085,0 0.9948,0.173588 0.41394,0.166912 0.66764,0.467354 0.25371,0.293765 0.37389,0.681002 0.12017,0.387236 0.12017,0.821207 0,0.427295 -0.12017,0.814531 -0.12018,0.387236 -0.38056,0.687678 -0.26039,0.300442 -0.67433,0.47403 -0.40726,0.173589 -0.98144,0.173589 z m 0.66097,-0.560825 h 0.66765 q 0.70103,0 1.08826,-0.407265 0.39392,-0.413942 0.39392,-1.181738 0,-0.774472 -0.39392,-1.175061 -0.38723,-0.407266 -1.08826,-0.407266 h -0.66765 z"
             id="text21"
             transform="scale(0.96898333,1.0320095)"
             aria-label="D" />
          <path
             style="font-size:6.83672px;font-family:'Padauk Book';-inkscape-font-specification:'Padauk Book, ';letter-spacing:0.76913px;fill:#008000;stroke-width:0.256781"
             d="m 121.10574,97.492281 q -0.64094,0 -1.06824,-0.200294 -0.42061,-0.200295 -0.66764,-0.534119 -0.24036,-0.340501 -0.34718,-0.761119 -0.10015,-0.420619 -0.10015,-0.847914 0,-0.600883 0.26038,-1.074914 0.26039,-0.480707 0.73442,-0.761119 0.47403,-0.280412 1.11497,-0.280412 0.56083,0 0.92803,0.186941 0.37389,0.180265 0.55415,0.460678 0.18694,0.280412 0.18694,0.567501 h -0.67432 q -0.007,-0.153559 -0.12686,-0.307118 -0.12017,-0.153559 -0.3405,-0.24703 -0.21364,-0.100148 -0.49406,-0.100148 -0.52744,0 -0.84791,0.213648 -0.31379,0.213647 -0.46068,0.567501 -0.1402,0.353854 -0.1402,0.781149 0,0.47403 0.1402,0.881296 0.14021,0.400589 0.454,0.647619 0.32047,0.240353 0.83456,0.240353 0.227,0 0.46736,-0.02671 0.24703,-0.03338 0.4807,-0.100147 V 95.68295 h -0.92803 v -0.567501 h 1.60236 v 2.08974 q -0.4273,0.140206 -0.86127,0.213647 -0.42729,0.07344 -0.70103,0.07344 z"
             id="text22"
             transform="scale(0.96898333,1.0320095)"
             aria-label="G" />
          <path
             style="font-size:6.83672px;font-family:'Padauk Book';-inkscape-font-specification:'Padauk Book, ';letter-spacing:0.76913px;fill:#008000;stroke-width:0.256781"
             d="M 130.95257,97.492279 V 93.1993 h 1.72921 q 0.34717,0 0.63426,0.1135 0.29377,0.1135 0.47403,0.347177 0.18027,0.233677 0.18027,0.594207 0,0.253707 -0.1135,0.447325 -0.10682,0.193618 -0.28709,0.327147 -0.17359,0.126854 -0.36721,0.186942 0.38056,0.106824 0.66098,0.387236 0.28041,0.273736 0.28041,0.72106 0,0.347177 -0.2003,0.614237 -0.19361,0.260383 -0.50073,0.407265 -0.30044,0.146883 -0.63427,0.146883 z m 0.66097,-0.560825 h 0.86127 q 0.43397,0 0.71438,-0.186941 0.28709,-0.186942 0.28709,-0.520766 0,-0.347177 -0.27374,-0.527442 -0.27373,-0.180265 -0.74776,-0.180265 h -0.84124 z m 0,-1.942857 h 0.84791 q 0.46736,0 0.66765,-0.180265 0.2003,-0.180265 0.2003,-0.440648 0,-0.273735 -0.19362,-0.440648 -0.19362,-0.166912 -0.64762,-0.166912 h -0.87462 z"
             id="text23"
             transform="scale(0.96898333,1.0320095)"
             aria-label="B" />
          <path
             style="font-size:6.83672px;font-family:'Padauk Book';-inkscape-font-specification:'Padauk Book, ';letter-spacing:0.76913px;fill:#008000;stroke-width:0.256781"
             d="M 142.39506,97.492279 V 93.1993 h 2.6973 v 0.560824 h -2.04301 v 1.255179 h 1.96289 v 0.540796 h -1.96289 v 1.375355 h 2.1031 v 0.560825 z"
             id="text24"
             transform="scale(0.96898333,1.0320095)"
             aria-label="E" />
        </g>
      </g>
      <g
         id="g39"
         transform="matrix(1.0625,0,0,1.0625,-42.128379,-6.8754044)">
        <path
           id="path33"
           style="opacity:0.849984;fill:#000fbe;stroke-width:0.264999"
           inkscape:transform-center-x="10.402275"
           inkscape:transform-center-y="5.5087626"
           transform="matrix(1.3191834,0,0,1.3191834,93.202091,-45.813616)"
           d="m 19.426061,128.76548 0.936171,-2.98031 -3.292274,3.35654 2.769376,-1.44543 -4.701422,0.0454 2.980318,0.93617 -3.35654,-3.29227 1.44543,2.76937 -0.04544,-4.70142 -0.936171,2.98032 3.292274,-3.35654 -2.769376,1.44543 4.701422,-0.0454 -2.980318,-0.93618 3.35654,3.29228 -1.44543,-2.76938 z" />
        <path
           style="font-size:4.51491px;font-family:'Padauk Book';-inkscape-font-specification:'Padauk Book, ';letter-spacing:0.507927px;opacity:0.849984;fill:#e3dedb;stroke-width:0.169576"
           d="m 102.74048,138.04321 v -1.96204 h 0.40123 v 1.96204 z m -0.0176,-2.43382 v -0.40122 h 0.44091 v 0.40122 z"
           id="text36"
           transform="scale(1.1340195,0.88181904)"
           aria-label="i" />
      </g>
      <g
         id="g38"
         transform="matrix(1.0625,0,0,1.0625,-41.40137,-7.8590819)">
        <path
           id="path32"
           style="opacity:0.849984;fill:#000fbe;stroke-width:0.264999"
           inkscape:transform-center-x="10.402275"
           inkscape:transform-center-y="5.5087626"
           transform="matrix(1.3191834,0,0,1.3191834,81.569764,-33.369688)"
           d="m 19.426061,128.76548 0.936171,-2.98031 -3.292274,3.35654 2.769376,-1.44543 -4.701422,0.0454 2.980318,0.93617 -3.35654,-3.29227 1.44543,2.76937 -0.04544,-4.70142 -0.936171,2.98032 3.292274,-3.35654 -2.769376,1.44543 4.701422,-0.0454 -2.980318,-0.93618 3.35654,3.29228 -1.44543,-2.76938 z" />
        <path
           d="m 113.53815,122.53978 v -1.78562 h 0.36515 v 0.24477 q 0.10032,-0.13643 0.22872,-0.21267 0.13242,-0.0762 0.30897,-0.0762 0.24477,0 0.36916,0.0762 0.12841,0.0722 0.22471,0.24076 0.12439,-0.17656 0.26483,-0.24477 0.14045,-0.0722 0.317,-0.0722 0.26885,0 0.40929,0.10433 0.14044,0.10032 0.19261,0.25681 0.0522,0.15248 0.0522,0.30897 v 1.15965 h -0.36515 v -1.15162 q 0,-0.19261 -0.0963,-0.31299 -0.0923,-0.12439 -0.28089,-0.12439 -0.12439,0 -0.2247,0.0722 -0.0963,0.0722 -0.1565,0.18056 -0.0562,0.10433 -0.0562,0.20465 v 1.13156 h -0.36114 v -1.15162 q 0,-0.16853 -0.10031,-0.30095 -0.10032,-0.13643 -0.27286,-0.13643 -0.13242,0 -0.23675,0.0762 -0.10031,0.0762 -0.1605,0.18458 -0.0562,0.10433 -0.0562,0.20063 v 1.12755 z"
           id="text35"
           style="font-size:4.10893px;font-family:'Padauk Book';-inkscape-font-specification:'Padauk Book, ';letter-spacing:0.462254px;opacity:0.849984;fill:#e3dedb;stroke-width:0.154326"
           transform="scale(0.91487934,1.0930403)"
           aria-label="m" />
      </g>
      <g
         id="g37"
         transform="matrix(1.0625,0,0,1.0625,-40.480302,-7.6531499)">
        <path
           id="path30"
           style="opacity:0.849984;fill:#000fbe;stroke-width:0.264999"
           transform="matrix(1.3191834,0,0,1.3191834,70.144421,-33.369688)"
           d="m 19.426061,128.76548 0.936171,-2.98031 -3.292274,3.35654 2.769376,-1.44543 -4.701422,0.0454 2.980318,0.93617 -3.35654,-3.29227 1.44543,2.76937 -0.04544,-4.70142 -0.936171,2.98032 3.292274,-3.35654 -2.769376,1.44543 4.701422,-0.0454 -2.980318,-0.93618 3.35654,3.29228 -1.44543,-2.76938 z" />
        <path
           style="font-size:5.27863px;font-family:'Padauk Book';-inkscape-font-specification:'Padauk Book, ';letter-spacing:0.593846px;opacity:0.849984;fill:#e3dedb;stroke-width:0.19826"
           d="m 80.595809,154.72878 v -2.29394 h 0.469097 v 0.32476 q 0.06701,-0.11341 0.149492,-0.18558 0.08763,-0.0773 0.242281,-0.11341 0.159803,-0.0412 0.438168,-0.0412 v 0.40724 q -0.433013,0 -0.634054,0.17527 -0.195887,0.17011 -0.195887,0.4691 v 1.2578 z"
           id="text34"
           transform="scale(1.1547002,0.86602566)"
           aria-label="r" />
      </g>
      <g
         id="g40"
         transform="matrix(1.0625,0,0,1.0625,19.901925,1.3231956)">
        <path
           id="path39"
           style="opacity:0.849984;fill:#000fbe;stroke-width:0.264999"
           transform="matrix(1.3191834,0,0,1.3191834,70.144421,-33.369688)"
           d="m 19.426061,128.76548 0.936171,-2.98031 -3.292274,3.35654 2.769376,-1.44543 -4.701422,0.0454 2.980318,0.93617 -3.35654,-3.29227 1.44543,2.76937 -0.04544,-4.70142 -0.936171,2.98032 3.292274,-3.35654 -2.769376,1.44543 4.701422,-0.0454 -2.980318,-0.93618 3.35654,3.29228 -1.44543,-2.76938 z" />
        <path
           style="font-size:5.27863px;font-family:'Padauk Book';-inkscape-font-specification:'Padauk Book, ';letter-spacing:0.593846px;opacity:0.849984;fill:#e3dedb;stroke-width:0.19826"
           d="m 80.595809,154.72878 v -2.29394 h 0.469097 v 0.32476 q 0.06701,-0.11341 0.149492,-0.18558 0.08763,-0.0773 0.242281,-0.11341 0.159803,-0.0412 0.438168,-0.0412 v 0.40724 q -0.433013,0 -0.634054,0.17527 -0.195887,0.17011 -0.195887,0.4691 v 1.2578 z"
           id="text39"
           transform="scale(1.1547002,0.86602566)"
           aria-label="r" />
      </g>
      <g
         id="g41"
         transform="matrix(1.0625,0,0,1.0625,7.762498,10.29349)">
        <path
           id="path40"
           style="opacity:0.849984;fill:#000fbe;stroke-width:0.264999"
           inkscape:transform-center-x="10.402275"
           inkscape:transform-center-y="5.5087626"
           transform="matrix(1.3191834,0,0,1.3191834,81.569764,-33.369688)"
           d="m 19.426061,128.76548 0.936171,-2.98031 -3.292274,3.35654 2.769376,-1.44543 -4.701422,0.0454 2.980318,0.93617 -3.35654,-3.29227 1.44543,2.76937 -0.04544,-4.70142 -0.936171,2.98032 3.292274,-3.35654 -2.769376,1.44543 4.701422,-0.0454 -2.980318,-0.93618 3.35654,3.29228 -1.44543,-2.76938 z" />
        <path
           d="m 113.53815,122.53978 v -1.78562 h 0.36515 v 0.24477 q 0.10032,-0.13643 0.22872,-0.21267 0.13242,-0.0762 0.30897,-0.0762 0.24477,0 0.36916,0.0762 0.12841,0.0722 0.22471,0.24076 0.12439,-0.17656 0.26483,-0.24477 0.14045,-0.0722 0.317,-0.0722 0.26885,0 0.40929,0.10433 0.14044,0.10032 0.19261,0.25681 0.0522,0.15248 0.0522,0.30897 v 1.15965 h -0.36515 v -1.15162 q 0,-0.19261 -0.0963,-0.31299 -0.0923,-0.12439 -0.28089,-0.12439 -0.12439,0 -0.2247,0.0722 -0.0963,0.0722 -0.1565,0.18056 -0.0562,0.10433 -0.0562,0.20465 v 1.13156 h -0.36114 v -1.15162 q 0,-0.16853 -0.10031,-0.30095 -0.10032,-0.13643 -0.27286,-0.13643 -0.13242,0 -0.23675,0.0762 -0.10031,0.0762 -0.1605,0.18458 -0.0562,0.10433 -0.0562,0.20063 v 1.12755 z"
           id="text40"
           style="font-size:4.10893px;font-family:'Padauk Book';-inkscape-font-specification:'Padauk Book, ';letter-spacing:0.462254px;opacity:0.849984;fill:#e3dedb;stroke-width:0.154326"
           transform="scale(0.91487934,1.0930403)"
           aria-label="m" />
      </g>
      <g
         id="g42"
         transform="matrix(1.0625,0,0,1.0625,-4.596849,5.3625857)">
        <path
           id="path41"
           style="opacity:0.849984;fill:#000fbe;stroke-width:0.264999"
           inkscape:transform-center-x="10.402275"
           inkscape:transform-center-y="5.5087626"
           transform="matrix(1.3191834,0,0,1.3191834,93.202091,-45.813616)"
           d="m 19.426061,128.76548 0.936171,-2.98031 -3.292274,3.35654 2.769376,-1.44543 -4.701422,0.0454 2.980318,0.93617 -3.35654,-3.29227 1.44543,2.76937 -0.04544,-4.70142 -0.936171,2.98032 3.292274,-3.35654 -2.769376,1.44543 4.701422,-0.0454 -2.980318,-0.93618 3.35654,3.29228 -1.44543,-2.76938 z" />
        <path
           style="font-size:4.51491px;font-family:'Padauk Book';-inkscape-font-specification:'Padauk Book, ';letter-spacing:0.507927px;opacity:0.849984;fill:#e3dedb;stroke-width:0.169576"
           d="m 102.74048,138.04321 v -1.96204 h 0.40123 v 1.96204 z m -0.0176,-2.43382 v -0.40122 h 0.44091 v 0.40122 z"
           id="text41"
           transform="scale(1.1340195,0.88181904)"
           aria-label="i" />
      </g>
      <path
         style="font-size:4.23333px;font-family:'Padauk Book';-inkscape-font-specification:'Padauk Book, ';letter-spacing:0.79375px;opacity:0.849984;fill:#0000ff;stroke-width:0.265"
         d="m 123.73815,131.85304 v -2.65823 h 0.40928 v 2.65823 z m 1.72806,0 v -1.83968 h 0.37621 v 0.23151 q 0.0868,-0.12816 0.21497,-0.20257 0.13229,-0.0744 0.35554,-0.0744 0.37207,0 0.52916,0.18604 0.1571,0.18603 0.1571,0.47956 v 1.21956 h -0.37207 v -1.19063 q 0,-0.20257 -0.12403,-0.33072 -0.11988,-0.12816 -0.29765,-0.12816 -0.1943,0 -0.33073,0.14056 -0.13229,0.14056 -0.13229,0.3638 v 1.14515 z m 3.72897,0.0496 q -0.23564,0 -0.42994,-0.12403 -0.19431,-0.12402 -0.31006,-0.33486 -0.11576,-0.21497 -0.11576,-0.47956 0,-0.24391 0.0785,-0.47128 0.0786,-0.23151 0.24805,-0.37621 0.1695,-0.14883 0.44648,-0.14883 0.1943,0 0.3514,0.0661 0.1571,0.062 0.26458,0.19844 v -1.03766 h 0.36794 v 2.65823 h -0.36794 v -0.22324 q -0.091,0.10748 -0.22737,0.19017 -0.13643,0.0827 -0.30593,0.0827 z m 0.0289,-0.28112 q 0.17363,0 0.28112,-0.10749 0.11162,-0.10749 0.16123,-0.26458 0.0538,-0.1571 0.0538,-0.30179 0,-0.20671 -0.0661,-0.37207 -0.0662,-0.1695 -0.18604,-0.26872 -0.11988,-0.0992 -0.27698,-0.0992 -0.17777,0 -0.28525,0.11576 -0.10336,0.11575 -0.14883,0.28525 -0.0455,0.16537 -0.0455,0.32246 0,0.1819 0.062,0.339 0.062,0.1571 0.17364,0.25631 0.11575,0.0951 0.27698,0.0951 z m 2.94349,0.28112 q -0.23151,0 -0.39274,-0.0868 -0.16123,-0.0868 -0.26045,-0.22737 -0.0992,-0.14056 -0.14469,-0.31006 -0.0413,-0.17364 -0.0413,-0.34313 0,-0.23978 0.0827,-0.46302 0.0868,-0.22325 0.27285,-0.36381 0.19017,-0.14056 0.50849,-0.14056 0.26045,0 0.42168,0.0868 0.16123,0.0827 0.24805,0.21911 0.0868,0.13229 0.11989,0.28112 0.0331,0.14883 0.0331,0.27698 0,0.0827 -0.0124,0.16537 h -1.28571 q 0,0.27698 0.0992,0.46302 0.10335,0.18603 0.35967,0.18603 0.14883,0 0.23564,-0.0579 0.091,-0.0579 0.13643,-0.1447 0.0455,-0.0868 0.0579,-0.17363 h 0.3886 q -0.0248,0.16536 -0.11989,0.31006 -0.0909,0.14469 -0.26458,0.23564 -0.17363,0.0868 -0.44235,0.0868 z m -0.45062,-1.16582 h 0.89297 q 0.004,-0.0331 0.004,-0.0786 -0.004,-0.1819 -0.10335,-0.31006 -0.0992,-0.13229 -0.339,-0.13229 -0.16123,0 -0.25631,0.0827 -0.0951,0.0827 -0.14056,0.20257 -0.0455,0.11989 -0.0579,0.23565 z m 2.33578,1.11621 0.71106,-0.96325 -0.65732,-0.87643 h 0.46302 l 0.45062,0.63252 0.43821,-0.63252 h 0.42582 l -0.65733,0.87643 0.70694,0.96325 h -0.46302 l -0.50437,-0.70693 -0.48782,0.70693 z m 5.58518,0 v -2.65823 h 1.57923 v 0.34726 h -1.16995 v 0.77721 h 1.09554 v 0.34313 h -1.09554 v 1.19063 z m 2.86081,0 v -1.83968 h 0.3762 v 1.83968 z m -0.0165,-2.28203 v -0.3762 h 0.41341 v 0.3762 z m 1.67432,2.28203 v -1.83968 h 0.3762 v 0.23151 q 0.0868,-0.12816 0.21497,-0.20257 0.1323,-0.0744 0.35554,-0.0744 0.37207,0 0.52916,0.18604 0.1571,0.18603 0.1571,0.47956 v 1.21956 h -0.37207 v -1.19063 q 0,-0.20257 -0.12402,-0.33072 -0.11989,-0.12816 -0.29766,-0.12816 -0.1943,0 -0.33073,0.14056 -0.13229,0.14056 -0.13229,0.3638 v 1.14515 z m 3.72896,0.73174 q -0.23151,0 -0.38447,-0.062 -0.14883,-0.0579 -0.23151,-0.14882 -0.0827,-0.091 -0.11575,-0.19017 -0.0331,-0.0951 -0.0331,-0.1695 h 0.38448 q 0,0.16123 0.12815,0.23978 0.13229,0.0827 0.30179,0.0827 0.1695,0 0.27285,-0.0744 0.10749,-0.0744 0.15297,-0.25219 0.0496,-0.17776 0.0496,-0.48782 -0.0868,0.13643 -0.24392,0.21497 -0.15709,0.0786 -0.31832,0.0786 -0.38034,0 -0.59945,-0.23151 -0.21911,-0.23564 -0.21911,-0.6904 0,-0.27285 0.0951,-0.47955 0.0992,-0.21084 0.27698,-0.3266 0.17777,-0.11989 0.40928,-0.11989 0.22738,0 0.36794,0.0579 0.14469,0.0537 0.23151,0.1819 v -0.1943 h 0.3762 v 1.757 q 0,0.35966 -0.23151,0.58704 -0.22738,0.22738 -0.66973,0.22738 z m 0.0165,-1.0294 q 0.18604,0 0.29766,-0.0951 0.11162,-0.0992 0.16123,-0.24805 0.0496,-0.15296 0.0496,-0.31419 0,-0.30593 -0.12403,-0.49196 -0.11989,-0.19017 -0.39274,-0.19017 -0.19017,0 -0.29765,0.0992 -0.10336,0.0951 -0.14883,0.25218 -0.0413,0.15296 -0.0413,0.32659 0,0.28939 0.12402,0.47543 0.12402,0.18603 0.37207,0.18603 z m 2.95176,0.34727 q -0.23151,0 -0.39274,-0.0868 -0.16123,-0.0868 -0.26045,-0.22737 -0.0992,-0.14056 -0.1447,-0.31006 -0.0413,-0.17364 -0.0413,-0.34313 0,-0.23978 0.0827,-0.46302 0.0868,-0.22325 0.27286,-0.36381 0.19016,-0.14056 0.50849,-0.14056 0.26045,0 0.42168,0.0868 0.16123,0.0827 0.24805,0.21911 0.0868,0.13229 0.11989,0.28112 0.0331,0.14883 0.0331,0.27698 0,0.0827 -0.0124,0.16537 h -1.28571 q 0,0.27698 0.0992,0.46302 0.10335,0.18603 0.35966,0.18603 0.14883,0 0.23565,-0.0579 0.0909,-0.0579 0.13642,-0.1447 0.0455,-0.0868 0.0579,-0.17363 h 0.38861 q -0.0248,0.16536 -0.11989,0.31006 -0.0909,0.14469 -0.26458,0.23564 -0.17364,0.0868 -0.44235,0.0868 z m -0.45062,-1.16582 h 0.89297 q 0.004,-0.0331 0.004,-0.0786 -0.004,-0.1819 -0.10335,-0.31006 -0.0992,-0.13229 -0.339,-0.13229 -0.16123,0 -0.25631,0.0827 -0.0951,0.0827 -0.14056,0.20257 -0.0455,0.11989 -0.0579,0.23565 z m 2.51767,1.11621 v -1.83968 h 0.37621 v 0.26045 q 0.0537,-0.0909 0.11989,-0.14883 0.0703,-0.062 0.1943,-0.0909 0.12816,-0.0331 0.3514,-0.0331 v 0.32659 q -0.34727,0 -0.5085,0.14056 -0.15709,0.13643 -0.15709,0.37621 v 1.00872 z"
         id="text42"
         aria-label="Index Finger" />
      <path
         style="font-size:4.23333px;font-family:'Padauk Book';-inkscape-font-specification:'Padauk Book, ';letter-spacing:0.79375px;opacity:0.849984;fill:#0000ff;stroke-width:0.265"
         d="m 123.73815,141.03532 v -2.65823 h 0.8847 q 0.47956,0 0.72761,0.16536 0.24804,0.16537 0.24804,0.56224 0,0.14056 -0.0744,0.25218 -0.0744,0.10749 -0.19017,0.19017 -0.11575,0.0827 -0.24804,0.14056 0.11988,0.0289 0.21083,0.0909 0.091,0.0579 0.1447,0.18604 0.0413,0.10748 0.062,0.28938 0.0248,0.17777 0.0537,0.38448 0.0331,0.2067 0.10749,0.39687 h -0.42168 q -0.0413,-0.16536 -0.0579,-0.26045 -0.0165,-0.0951 -0.0289,-0.17363 -0.0124,-0.0827 -0.0331,-0.20257 -0.0496,-0.24392 -0.10748,-0.35554 -0.0579,-0.11575 -0.17364,-0.14882 -0.11575,-0.0372 -0.33073,-0.0372 h -0.3638 v 1.17822 z m 0.40928,-1.52135 h 0.46302 q 0.23978,0 0.40515,-0.0868 0.16536,-0.091 0.16536,-0.30179 0,-0.22738 -0.16123,-0.31419 -0.16123,-0.0868 -0.40101,-0.0868 h -0.47129 z m 2.71198,1.52135 v -1.83968 h 0.3762 v 1.83968 z m -0.0165,-2.28203 v -0.3762 h 0.41341 v 0.3762 z m 1.67432,2.28203 v -1.83968 h 0.3762 v 0.23151 q 0.0868,-0.12816 0.21498,-0.20257 0.13229,-0.0744 0.35553,-0.0744 0.37207,0 0.52917,0.18603 0.15709,0.18604 0.15709,0.47956 v 1.21956 h -0.37207 v -1.19062 q 0,-0.20258 -0.12402,-0.33073 -0.11989,-0.12816 -0.29766,-0.12816 -0.1943,0 -0.33073,0.14056 -0.13229,0.14056 -0.13229,0.3638 v 1.14515 z m 3.72897,0.73174 q -0.23151,0 -0.38447,-0.062 -0.14883,-0.0579 -0.23152,-0.14883 -0.0827,-0.0909 -0.11575,-0.19017 -0.0331,-0.0951 -0.0331,-0.1695 h 0.38447 q 0,0.16123 0.12816,0.23978 0.13229,0.0827 0.30179,0.0827 0.1695,0 0.27285,-0.0744 0.10749,-0.0744 0.15296,-0.25218 0.0496,-0.17777 0.0496,-0.48783 -0.0868,0.13643 -0.24391,0.21497 -0.1571,0.0786 -0.31833,0.0786 -0.38034,0 -0.59945,-0.23151 -0.2191,-0.23564 -0.2191,-0.69039 0,-0.27286 0.0951,-0.47956 0.0992,-0.21084 0.27699,-0.3266 0.17776,-0.11988 0.40927,-0.11988 0.22738,0 0.36794,0.0579 0.14469,0.0537 0.23151,0.1819 v -0.1943 h 0.3762 v 1.757 q 0,0.35967 -0.23151,0.58704 -0.22737,0.22738 -0.66972,0.22738 z m 0.0165,-1.0294 q 0.18604,0 0.29766,-0.0951 0.11162,-0.0992 0.16123,-0.24805 0.0496,-0.15296 0.0496,-0.31419 0,-0.30592 -0.12402,-0.49196 -0.11989,-0.19017 -0.39274,-0.19017 -0.19017,0 -0.29766,0.0992 -0.10335,0.0951 -0.14883,0.25218 -0.0413,0.15296 -0.0413,0.3266 0,0.28938 0.12402,0.47542 0.12403,0.18603 0.37207,0.18603 z"
         id="text43"
         aria-label="Ring" />
      <path
         style="font-size:4.23333px;font-family:'Padauk Book';-inkscape-font-specification:'Padauk Book, ';letter-spacing:0.79375px;opacity:0.849984;fill:#0000ff;stroke-width:0.265"
         d="m 123.73815,150.00976 v -2.65823 h 0.65733 l 0.71933,2.08772 0.72347,-2.09186 h 0.65733 v 2.66237 h -0.40515 v -2.28203 l -0.80615,2.28203 h -0.34726 l -0.79789,-2.26549 v 2.26549 z m 4.08451,0 v -1.83968 h 0.3762 v 1.83968 z m -0.0165,-2.28203 v -0.3762 h 0.41341 v 0.3762 z m 2.47633,2.33164 q -0.23564,0 -0.42994,-0.12402 -0.19431,-0.12403 -0.31006,-0.33487 -0.11576,-0.21497 -0.11576,-0.47955 0,-0.24391 0.0786,-0.47129 0.0785,-0.23151 0.24805,-0.37621 0.1695,-0.14882 0.44648,-0.14882 0.19431,0 0.3514,0.0661 0.1571,0.062 0.26458,0.19844 v -1.03766 h 0.36794 v 2.65823 h -0.36794 v -0.22324 q -0.0909,0.10749 -0.22737,0.19017 -0.13643,0.0827 -0.30593,0.0827 z m 0.0289,-0.28112 q 0.17364,0 0.28112,-0.10749 0.11162,-0.10748 0.16123,-0.26458 0.0538,-0.15709 0.0538,-0.30179 0,-0.2067 -0.0661,-0.37207 -0.0661,-0.1695 -0.18603,-0.26872 -0.11989,-0.0992 -0.27699,-0.0992 -0.17777,0 -0.28525,0.11575 -0.10336,0.11576 -0.14883,0.28525 -0.0455,0.16537 -0.0455,0.32246 0,0.18191 0.062,0.339 0.062,0.1571 0.17364,0.25632 0.11575,0.0951 0.27698,0.0951 z m 2.96003,0.28112 q -0.23565,0 -0.42995,-0.12402 -0.1943,-0.12403 -0.31006,-0.33487 -0.11575,-0.21497 -0.11575,-0.47955 0,-0.24391 0.0785,-0.47129 0.0786,-0.23151 0.24805,-0.37621 0.1695,-0.14882 0.44649,-0.14882 0.1943,0 0.35139,0.0661 0.1571,0.062 0.26459,0.19844 v -1.03766 h 0.36793 v 2.65823 h -0.36793 v -0.22324 q -0.0909,0.10749 -0.22738,0.19017 -0.13642,0.0827 -0.30592,0.0827 z m 0.0289,-0.28112 q 0.17363,0 0.28112,-0.10749 0.11162,-0.10748 0.16123,-0.26458 0.0537,-0.15709 0.0537,-0.30179 0,-0.2067 -0.0661,-0.37207 -0.0661,-0.1695 -0.18603,-0.26872 -0.11989,-0.0992 -0.27699,-0.0992 -0.17776,0 -0.28525,0.11575 -0.10335,0.11576 -0.14883,0.28525 -0.0455,0.16537 -0.0455,0.32246 0,0.18191 0.062,0.339 0.062,0.1571 0.17363,0.25632 0.11576,0.0951 0.27699,0.0951 z m 2.17041,0.23151 v -2.65823 h 0.3762 v 2.65823 z m 2.44326,0.0496 q -0.23151,0 -0.39275,-0.0868 -0.16123,-0.0868 -0.26044,-0.22737 -0.0992,-0.14056 -0.1447,-0.31006 -0.0413,-0.17363 -0.0413,-0.34313 0,-0.23978 0.0827,-0.46302 0.0868,-0.22324 0.27285,-0.3638 0.19017,-0.14056 0.5085,-0.14056 0.26045,0 0.42168,0.0868 0.16123,0.0827 0.24805,0.21911 0.0868,0.13229 0.11989,0.28112 0.0331,0.14883 0.0331,0.27699 0,0.0827 -0.0124,0.16536 h -1.28571 q 0,0.27699 0.0992,0.46302 0.10335,0.18604 0.35966,0.18604 0.14883,0 0.23565,-0.0579 0.091,-0.0579 0.13642,-0.1447 0.0455,-0.0868 0.0579,-0.17363 h 0.38861 q -0.0248,0.16537 -0.11989,0.31006 -0.0909,0.14469 -0.26458,0.23564 -0.17364,0.0868 -0.44235,0.0868 z m -0.45062,-1.16582 h 0.89297 q 0.004,-0.0331 0.004,-0.0786 -0.004,-0.1819 -0.10335,-0.31005 -0.0992,-0.1323 -0.339,-0.1323 -0.16123,0 -0.25632,0.0827 -0.0951,0.0827 -0.14056,0.20257 -0.0455,0.11989 -0.0579,0.23564 z"
         id="text44"
         aria-label="Middle" />
      <path
         d="m 43.838541,97.145379 v -3.101276 h 1.948547 v 0.405144 h -1.47588 v 0.906749 h 1.418002 v 0.390674 h -1.418002 v 0.993566 h 1.519288 v 0.405143 z m 7.481371,0.0627 q -0.361735,0 -0.612538,-0.125402 -0.24598,-0.130224 -0.40032,-0.352088 -0.154341,-0.226688 -0.221865,-0.511253 -0.06752,-0.289388 -0.06752,-0.607715 0,-0.318327 0.06752,-0.607715 0.07235,-0.294211 0.226688,-0.520898 0.15434,-0.231511 0.40032,-0.361735 0.250803,-0.135048 0.612538,-0.135048 0.583599,0 0.858518,0.265272 0.274919,0.26045 0.289388,0.66077 h -0.482313 q -0.0096,-0.270096 -0.163987,-0.409967 -0.15434,-0.139871 -0.501606,-0.139871 -0.810287,0 -0.810287,1.249192 0,0.655947 0.202572,0.935688 0.202572,0.279742 0.598069,0.279742 0.294211,0 0.47749,-0.135048 0.188102,-0.13987 0.202572,-0.424435 h 0.496783 q -0.0096,0.270095 -0.159164,0.482313 -0.149517,0.212218 -0.409966,0.33762 -0.26045,0.120578 -0.602892,0.120578 z m 2.510786,-0.0627 v -3.101276 h 0.438905 v 1.21543 q 0.106109,-0.144694 0.270096,-0.226687 0.163986,-0.08682 0.414789,-0.08682 0.409967,0 0.593246,0.212218 0.188102,0.207394 0.188102,0.622184 v 1.364947 h -0.443728 v -1.336008 q 0,-0.299035 -0.125402,-0.434082 -0.125401,-0.139871 -0.303857,-0.139871 -0.192926,0 -0.327973,0.08682 -0.130225,0.08199 -0.197749,0.197749 -0.06752,0.115755 -0.06752,0.217041 v 1.408355 z m 4.27123,0.05788 q -0.308681,0 -0.549838,-0.130225 -0.241156,-0.130225 -0.381027,-0.381028 -0.139871,-0.250803 -0.139871,-0.617361 0,-0.371381 0.139871,-0.622184 0.144694,-0.250803 0.385851,-0.376205 0.241156,-0.130224 0.545014,-0.130224 0.299034,0 0.540191,0.130224 0.241157,0.125402 0.381028,0.381028 0.144694,0.250803 0.144694,0.617361 0,0.371382 -0.144694,0.622185 -0.139871,0.250803 -0.385851,0.381027 -0.241157,0.125402 -0.535368,0.125402 z m 0,-0.303858 q 0.207395,0 0.342442,-0.115755 0.139871,-0.115755 0.207395,-0.303857 0.06752,-0.188103 0.06752,-0.405144 0,-0.217041 -0.06752,-0.405143 -0.06752,-0.192926 -0.207395,-0.308681 -0.135047,-0.120578 -0.342442,-0.120578 -0.217041,0 -0.356912,0.120578 -0.139871,0.120579 -0.207395,0.313504 -0.06752,0.188102 -0.06752,0.40032 0,0.212218 0.06752,0.40032 0.06752,0.188103 0.207395,0.308681 0.139871,0.115755 0.356912,0.115755 z m 2.356446,0.24598 v -2.146295 h 0.438905 v 0.303858 q 0.0627,-0.106109 0.139871,-0.173633 0.08199,-0.07235 0.226687,-0.106109 0.149518,-0.03858 0.409967,-0.03858 v 0.381027 q -0.405143,0 -0.593246,0.163987 -0.183279,0.159163 -0.183279,0.438905 v 1.176845 z m 3.296957,0.05788 q -0.274919,0 -0.501606,-0.144694 -0.226688,-0.144694 -0.361735,-0.390674 -0.135048,-0.250803 -0.135048,-0.559484 0,-0.284565 0.09164,-0.549837 0.09164,-0.270096 0.289389,-0.438905 0.197748,-0.173633 0.520898,-0.173633 0.226687,0 0.409967,0.07717 0.183279,0.07235 0.30868,0.23151 v -1.210607 h 0.429259 v 3.101276 h -0.429259 v -0.260449 q -0.106109,0.125401 -0.265272,0.221864 -0.159164,0.09646 -0.356912,0.09646 z m 0.03376,-0.327973 q 0.202571,0 0.327973,-0.125402 0.130225,-0.125401 0.188102,-0.308681 0.0627,-0.183279 0.0627,-0.352088 0,-0.241157 -0.07717,-0.434083 -0.07717,-0.197748 -0.217041,-0.313503 -0.139871,-0.115756 -0.32315,-0.115756 -0.207395,0 -0.332797,0.135048 -0.120578,0.135048 -0.173633,0.332797 -0.05305,0.192925 -0.05305,0.376204 0,0.212218 0.07235,0.395497 0.07235,0.183279 0.202572,0.299034 0.135047,0.110933 0.32315,0.110933 z m 2.631369,-1.316716 q -0.12541,0 -0.22669,-0.09164 -0.10129,-0.09164 -0.10129,-0.221864 0,-0.130225 0.10129,-0.226687 0.10128,-0.09646 0.22669,-0.09646 0.13022,0 0.22668,0.09646 0.10129,0.09646 0.10129,0.226687 0,0.130225 -0.10129,0.221864 -0.0965,0.09164 -0.22668,0.09164 z m 0,1.668804 q -0.12541,0 -0.22669,-0.09164 -0.10129,-0.09646 -0.10129,-0.226687 0,-0.130225 0.10129,-0.221865 0.10128,-0.09164 0.22669,-0.09164 0.13022,0 0.22668,0.09164 0.10129,0.09164 0.10129,0.221865 0,0.130224 -0.10129,0.226687 -0.0965,0.09164 -0.22668,0.09164 z m 5.83668,-0.01929 q -0.35691,0 -0.62701,-0.130225 -0.2701,-0.135048 -0.44855,-0.366558 -0.17363,-0.23151 -0.26527,-0.530545 -0.0868,-0.299034 -0.0868,-0.63183 0,-0.448552 0.15916,-0.800641 0.15917,-0.352089 0.47749,-0.55466 0.31833,-0.207395 0.791,-0.207395 0.48231,0 0.79581,0.207395 0.31833,0.207394 0.47267,0.564306 0.15434,0.352089 0.15434,0.790995 0,0.448551 -0.15916,0.829579 -0.15434,0.376204 -0.47267,0.602892 -0.3135,0.226687 -0.79099,0.226687 z m 0,-0.409967 q 0.35209,0 0.54984,-0.168809 0.20257,-0.173633 0.28456,-0.458198 0.0868,-0.284565 0.0868,-0.622184 0,-0.33762 -0.0868,-0.598069 -0.082,-0.260449 -0.28456,-0.409967 -0.19775,-0.149517 -0.54984,-0.149517 -0.34727,0 -0.55466,0.149517 -0.20257,0.149518 -0.28939,0.409967 -0.082,0.260449 -0.082,0.598069 0,0.337619 0.082,0.622184 0.0868,0.284565 0.28939,0.458198 0.20739,0.168809 0.55466,0.168809 z m 2.75194,1.200961 v -2.99999 h 0.43891 v 0.279742 q 0.14951,-0.149517 0.29903,-0.241157 0.15434,-0.09164 0.35691,-0.09164 0.35209,0 0.56913,0.149517 0.22187,0.149517 0.32315,0.405143 0.10611,0.250803 0.10611,0.564307 0,0.327973 -0.10611,0.588422 -0.10128,0.26045 -0.32315,0.409967 -0.21704,0.144694 -0.55948,0.144694 -0.21704,0 -0.37138,-0.07717 -0.15434,-0.08199 -0.29421,-0.202572 v 1.070736 z m 1.03215,-1.094852 q 0.21704,0 0.34727,-0.120578 0.13505,-0.125401 0.19292,-0.318327 0.0627,-0.192925 0.0627,-0.40032 0,-0.207395 -0.0627,-0.395497 -0.0579,-0.188102 -0.19292,-0.308681 -0.13023,-0.120578 -0.34245,-0.120578 -0.22186,0 -0.35208,0.125401 -0.13023,0.125402 -0.18811,0.318327 -0.0579,0.188103 -0.0579,0.385851 0,0.231511 0.0579,0.424436 0.0627,0.188102 0.19293,0.299034 0.13022,0.110932 0.34244,0.110932 z m 3.25355,0.299035 q -0.2701,0 -0.4582,-0.101286 -0.1881,-0.101286 -0.30386,-0.265273 -0.11575,-0.163986 -0.16881,-0.361735 -0.0482,-0.202571 -0.0482,-0.40032 0,-0.279742 0.0965,-0.540191 0.10128,-0.260449 0.31832,-0.424436 0.22187,-0.163986 0.59325,-0.163986 0.30386,0 0.49196,0.101286 0.1881,0.09646 0.28939,0.255626 0.10128,0.15434 0.13987,0.327973 0.0386,0.173633 0.0386,0.32315 0,0.09646 -0.0145,0.192925 h -1.49999 q 0,0.32315 0.11575,0.540191 0.12058,0.217041 0.41962,0.217041 0.17363,0 0.27491,-0.06752 0.10611,-0.06752 0.15917,-0.168809 0.053,-0.101286 0.0675,-0.202572 h 0.45338 q -0.0289,0.192926 -0.13988,0.361735 -0.1061,0.16881 -0.30868,0.274919 -0.20257,0.101286 -0.51607,0.101286 z m -0.52572,-1.360124 h 1.04179 q 0.005,-0.03858 0.005,-0.09164 -0.005,-0.212218 -0.12058,-0.361735 -0.11576,-0.15434 -0.3955,-0.15434 -0.1881,0 -0.29903,0.09646 -0.11093,0.09646 -0.16399,0.236334 -0.0531,0.139871 -0.0675,0.274919 z m 2.79053,1.302246 V 94.99909 h 0.4389 v 0.270096 q 0.10129,-0.149517 0.2508,-0.236334 0.15434,-0.08682 0.41479,-0.08682 0.43409,0 0.61736,0.217041 0.18328,0.217041 0.18328,0.559483 v 1.422825 h -0.43408 v -1.389063 q 0,-0.236333 -0.14469,-0.38585 -0.13987,-0.149518 -0.34727,-0.149518 -0.22669,0 -0.38585,0.163987 -0.15434,0.163987 -0.15434,0.424436 v 1.336008 z m 6.19359,0 v -3.101276 h 0.93086 q 0.22187,0 0.43409,0.03859 0.21704,0.03858 0.38585,0.13987 0.16881,0.09646 0.27009,0.274919 0.10129,0.178456 0.10129,0.463021 0,0.284565 -0.10611,0.463021 -0.10129,0.178456 -0.2701,0.274919 -0.16881,0.09164 -0.38102,0.130224 -0.21222,0.03376 -0.43409,0.03376 h -0.45337 v 1.282954 z m 0.47749,-1.688097 h 0.42444 q 0.36173,0 0.55466,-0.106109 0.19292,-0.110932 0.19292,-0.390674 0,-0.284565 -0.19292,-0.395497 -0.18811,-0.115755 -0.55466,-0.115755 h -0.42444 z m 3.97702,1.745975 q -0.30868,0 -0.54984,-0.130225 -0.24116,-0.130225 -0.38103,-0.381028 -0.13987,-0.250803 -0.13987,-0.617361 0,-0.371381 0.13987,-0.622184 0.1447,-0.250803 0.38585,-0.376205 0.24116,-0.130224 0.54502,-0.130224 0.29903,0 0.54019,0.130224 0.24116,0.125402 0.38103,0.381028 0.14469,0.250803 0.14469,0.617361 0,0.371382 -0.14469,0.622185 -0.13987,0.250803 -0.38585,0.381027 -0.24116,0.125402 -0.53537,0.125402 z m 0,-0.303858 q 0.20739,0 0.34244,-0.115755 0.13987,-0.115755 0.2074,-0.303857 0.0675,-0.188103 0.0675,-0.405144 0,-0.217041 -0.0675,-0.405143 -0.0675,-0.192926 -0.2074,-0.308681 -0.13505,-0.120578 -0.34244,-0.120578 -0.21704,0 -0.35691,0.120578 -0.13987,0.120579 -0.2074,0.313504 -0.0675,0.188102 -0.0675,0.40032 0,0.212218 0.0675,0.40032 0.0675,0.188103 0.2074,0.308681 0.13987,0.115755 0.35691,0.115755 z m 3.09439,0.303858 q -0.22669,0 -0.41479,-0.06752 -0.18328,-0.06752 -0.29421,-0.217041 -0.10611,-0.154341 -0.10611,-0.405144 h 0.4389 q 0,0.217042 0.11576,0.303858 0.12058,0.08682 0.3135,0.08682 0.16399,0 0.30868,-0.09164 0.1447,-0.09164 0.1447,-0.265273 0,-0.130224 -0.0965,-0.192925 -0.0916,-0.06752 -0.23633,-0.101286 -0.1447,-0.03376 -0.30868,-0.06752 -0.15917,-0.03376 -0.30386,-0.09646 -0.14469,-0.06752 -0.23633,-0.192926 -0.0916,-0.125401 -0.0916,-0.352089 0,-0.149517 0.082,-0.284565 0.082,-0.13987 0.26045,-0.226687 0.18328,-0.08682 0.48231,-0.08682 0.24116,0 0.42444,0.05788 0.1881,0.05306 0.29421,0.192926 0.10611,0.139871 0.10611,0.390674 h -0.43891 q 0,-0.08682 -0.0338,-0.163987 -0.0289,-0.08199 -0.11575,-0.135048 -0.082,-0.05305 -0.25081,-0.05305 -0.15916,0 -0.27009,0.08682 -0.10611,0.08682 -0.10611,0.217041 0,0.125402 0.0916,0.192926 0.0916,0.0627 0.23633,0.09646 0.1447,0.03376 0.30868,0.06752 0.16399,0.03376 0.30868,0.09646 0.1447,0.0627 0.23634,0.183279 0.0916,0.120578 0.0916,0.332796 0,0.26045 -0.13987,0.41479 -0.13987,0.149517 -0.35692,0.217041 -0.21221,0.0627 -0.44372,0.0627 z m 2.23586,-0.05788 v -2.146295 h 0.43891 v 2.146295 z m -0.0193,-2.66237 v -0.438906 h 0.48231 v 0.438906 z m 2.65065,2.720248 q -0.27974,0 -0.43408,-0.135048 -0.14952,-0.135048 -0.14952,-0.47749 v -1.2926 H 99.1902 v -0.299035 h 0.39549 v -0.405143 l 0.43891,-0.197749 v 0.602892 h 0.48231 v 0.299035 h -0.48231 v 1.254015 q 0,0.192925 0.0675,0.260449 0.0675,0.06752 0.19293,0.06752 0.1254,0 0.23633,-0.03858 v 0.299034 q -0.17845,0.0627 -0.35209,0.0627 z m 1.55581,-0.05788 v -2.146295 h 0.43891 v 2.146295 z m -0.0193,-2.66237 v -0.438906 h 0.48231 v 0.438906 z m 2.82911,2.720248 q -0.30868,0 -0.54984,-0.130225 -0.24115,-0.130225 -0.38102,-0.381028 -0.13987,-0.250803 -0.13987,-0.617361 0,-0.371381 0.13987,-0.622184 0.14469,-0.250803 0.38585,-0.376205 0.24115,-0.130224 0.54501,-0.130224 0.29904,0 0.54019,0.130224 0.24116,0.125402 0.38103,0.381028 0.14469,0.250803 0.14469,0.617361 0,0.371382 -0.14469,0.622185 -0.13987,0.250803 -0.38585,0.381027 -0.24116,0.125402 -0.53537,0.125402 z m 0,-0.303858 q 0.2074,0 0.34244,-0.115755 0.13988,-0.115755 0.2074,-0.303857 0.0675,-0.188103 0.0675,-0.405144 0,-0.217041 -0.0675,-0.405143 -0.0675,-0.192926 -0.2074,-0.308681 -0.13504,-0.120578 -0.34244,-0.120578 -0.21704,0 -0.35691,0.120578 -0.13987,0.120579 -0.20739,0.313504 -0.0675,0.188102 -0.0675,0.40032 0,0.212218 0.0675,0.40032 0.0675,0.188103 0.20739,0.308681 0.13987,0.115755 0.35691,0.115755 z m 2.34198,0.24598 v -2.146295 h 0.4389 v 0.270096 q 0.10129,-0.149517 0.25081,-0.236334 0.15434,-0.08682 0.41478,-0.08682 0.43409,0 0.61737,0.217041 0.18328,0.217041 0.18328,0.559483 v 1.422825 h -0.43409 v -1.389063 q 0,-0.236333 -0.14469,-0.38585 -0.13987,-0.149518 -0.34727,-0.149518 -0.22668,0 -0.38585,0.163987 -0.15434,0.163987 -0.15434,0.424436 v 1.336008 z"
         id="text45"
         style="font-size:4.93889px;font-family:'Padauk Book';-inkscape-font-specification:'Padauk Book, ';letter-spacing:0.79375px;fill:#0000ff;stroke:#a43717;stroke-width:0.265;stroke-linejoin:round"
         aria-label="E Chord: Open Position" />
      <path
         d="m 43.838541,97.145379 v -3.101276 h 1.948547 v 0.405144 h -1.47588 v 0.906749 h 1.418002 v 0.390674 h -1.418002 v 0.993566 h 1.519288 v 0.405143 z m 7.481371,0.0627 q -0.361735,0 -0.612538,-0.125402 -0.24598,-0.130224 -0.40032,-0.352088 -0.154341,-0.226688 -0.221865,-0.511253 -0.06752,-0.289388 -0.06752,-0.607715 0,-0.318327 0.06752,-0.607715 0.07235,-0.294211 0.226688,-0.520898 0.15434,-0.231511 0.40032,-0.361735 0.250803,-0.135048 0.612538,-0.135048 0.583599,0 0.858518,0.265272 0.274919,0.26045 0.289388,0.66077 h -0.482313 q -0.0096,-0.270096 -0.163987,-0.409967 -0.15434,-0.139871 -0.501606,-0.139871 -0.810287,0 -0.810287,1.249192 0,0.655947 0.202572,0.935688 0.202572,0.279742 0.598069,0.279742 0.294211,0 0.47749,-0.135048 0.188102,-0.13987 0.202572,-0.424435 h 0.496783 q -0.0096,0.270095 -0.159164,0.482313 -0.149517,0.212218 -0.409966,0.33762 -0.26045,0.120578 -0.602892,0.120578 z m 2.510786,-0.0627 v -3.101276 h 0.438905 v 1.21543 q 0.106109,-0.144694 0.270096,-0.226687 0.163986,-0.08682 0.414789,-0.08682 0.409967,0 0.593246,0.212218 0.188102,0.207394 0.188102,0.622184 v 1.364947 h -0.443728 v -1.336008 q 0,-0.299035 -0.125402,-0.434082 -0.125401,-0.139871 -0.303857,-0.139871 -0.192926,0 -0.327973,0.08682 -0.130225,0.08199 -0.197749,0.197749 -0.06752,0.115755 -0.06752,0.217041 v 1.408355 z m 4.27123,0.05788 q -0.308681,0 -0.549838,-0.130225 -0.241156,-0.130225 -0.381027,-0.381028 -0.139871,-0.250803 -0.139871,-0.617361 0,-0.371381 0.139871,-0.622184 0.144694,-0.250803 0.385851,-0.376205 0.241156,-0.130224 0.545014,-0.130224 0.299034,0 0.540191,0.130224 0.241157,0.125402 0.381028,0.381028 0.144694,0.250803 0.144694,0.617361 0,0.371382 -0.144694,0.622185 -0.139871,0.250803 -0.385851,0.381027 -0.241157,0.125402 -0.535368,0.125402 z m 0,-0.303858 q 0.207395,0 0.342442,-0.115755 0.139871,-0.115755 0.207395,-0.303857 0.06752,-0.188103 0.06752,-0.405144 0,-0.217041 -0.06752,-0.405143 -0.06752,-0.192926 -0.207395,-0.308681 -0.135047,-0.120578 -0.342442,-0.120578 -0.217041,0 -0.356912,0.120578 -0.139871,0.120579 -0.207395,0.313504 -0.06752,0.188102 -0.06752,0.40032 0,0.212218 0.06752,0.40032 0.06752,0.188103 0.207395,0.308681 0.139871,0.115755 0.356912,0.115755 z m 2.356446,0.24598 v -2.146295 h 0.438905 v 0.303858 q 0.0627,-0.106109 0.139871,-0.173633 0.08199,-0.07235 0.226687,-0.106109 0.149518,-0.03858 0.409967,-0.03858 v 0.381027 q -0.405143,0 -0.593246,0.163987 -0.183279,0.159163 -0.183279,0.438905 v 1.176845 z m 3.296957,0.05788 q -0.274919,0 -0.501606,-0.144694 -0.226688,-0.144694 -0.361735,-0.390674 -0.135048,-0.250803 -0.135048,-0.559484 0,-0.284565 0.09164,-0.549837 0.09164,-0.270096 0.289389,-0.438905 0.197748,-0.173633 0.520898,-0.173633 0.226687,0 0.409967,0.07717 0.183279,0.07235 0.30868,0.23151 v -1.210607 h 0.429259 v 3.101276 h -0.429259 v -0.260449 q -0.106109,0.125401 -0.265272,0.221864 -0.159164,0.09646 -0.356912,0.09646 z m 0.03376,-0.327973 q 0.202571,0 0.327973,-0.125402 0.130225,-0.125401 0.188102,-0.308681 0.0627,-0.183279 0.0627,-0.352088 0,-0.241157 -0.07717,-0.434083 -0.07717,-0.197748 -0.217041,-0.313503 -0.139871,-0.115756 -0.32315,-0.115756 -0.207395,0 -0.332797,0.135048 -0.120578,0.135048 -0.173633,0.332797 -0.05305,0.192925 -0.05305,0.376204 0,0.212218 0.07235,0.395497 0.07235,0.183279 0.202572,0.299034 0.135047,0.110933 0.32315,0.110933 z m 2.631369,-1.316716 q -0.12541,0 -0.22669,-0.09164 -0.10129,-0.09164 -0.10129,-0.221864 0,-0.130225 0.10129,-0.226687 0.10128,-0.09646 0.22669,-0.09646 0.13022,0 0.22668,0.09646 0.10129,0.09646 0.10129,0.226687 0,0.130225 -0.10129,0.221864 -0.0965,0.09164 -0.22668,0.09164 z m 0,1.668804 q -0.12541,0 -0.22669,-0.09164 -0.10129,-0.09646 -0.10129,-0.226687 0,-0.130225 0.10129,-0.221865 0.10128,-0.09164 0.22669,-0.09164 0.13022,0 0.22668,0.09164 0.10129,0.09164 0.10129,0.221865 0,0.130224 -0.10129,0.226687 -0.0965,0.09164 -0.22668,0.09164 z m 5.83668,-0.01929 q -0.35691,0 -0.62701,-0.130225 -0.2701,-0.135048 -0.44855,-0.366558 -0.17363,-0.23151 -0.26527,-0.530545 -0.0868,-0.299034 -0.0868,-0.63183 0,-0.448552 0.15916,-0.800641 0.15917,-0.352089 0.47749,-0.55466 0.31833,-0.207395 0.791,-0.207395 0.48231,0 0.79581,0.207395 0.31833,0.207394 0.47267,0.564306 0.15434,0.352089 0.15434,0.790995 0,0.448551 -0.15916,0.829579 -0.15434,0.376204 -0.47267,0.602892 -0.3135,0.226687 -0.79099,0.226687 z m 0,-0.409967 q 0.35209,0 0.54984,-0.168809 0.20257,-0.173633 0.28456,-0.458198 0.0868,-0.284565 0.0868,-0.622184 0,-0.33762 -0.0868,-0.598069 -0.082,-0.260449 -0.28456,-0.409967 -0.19775,-0.149517 -0.54984,-0.149517 -0.34727,0 -0.55466,0.149517 -0.20257,0.149518 -0.28939,0.409967 -0.082,0.260449 -0.082,0.598069 0,0.337619 0.082,0.622184 0.0868,0.284565 0.28939,0.458198 0.20739,0.168809 0.55466,0.168809 z m 2.75194,1.200961 v -2.99999 h 0.43891 v 0.279742 q 0.14951,-0.149517 0.29903,-0.241157 0.15434,-0.09164 0.35691,-0.09164 0.35209,0 0.56913,0.149517 0.22187,0.149517 0.32315,0.405143 0.10611,0.250803 0.10611,0.564307 0,0.327973 -0.10611,0.588422 -0.10128,0.26045 -0.32315,0.409967 -0.21704,0.144694 -0.55948,0.144694 -0.21704,0 -0.37138,-0.07717 -0.15434,-0.08199 -0.29421,-0.202572 v 1.070736 z m 1.03215,-1.094852 q 0.21704,0 0.34727,-0.120578 0.13505,-0.125401 0.19292,-0.318327 0.0627,-0.192925 0.0627,-0.40032 0,-0.207395 -0.0627,-0.395497 -0.0579,-0.188102 -0.19292,-0.308681 -0.13023,-0.120578 -0.34245,-0.120578 -0.22186,0 -0.35208,0.125401 -0.13023,0.125402 -0.18811,0.318327 -0.0579,0.188103 -0.0579,0.385851 0,0.231511 0.0579,0.424436 0.0627,0.188102 0.19293,0.299034 0.13022,0.110932 0.34244,0.110932 z m 3.25355,0.299035 q -0.2701,0 -0.4582,-0.101286 -0.1881,-0.101286 -0.30386,-0.265273 -0.11575,-0.163986 -0.16881,-0.361735 -0.0482,-0.202571 -0.0482,-0.40032 0,-0.279742 0.0965,-0.540191 0.10128,-0.260449 0.31832,-0.424436 0.22187,-0.163986 0.59325,-0.163986 0.30386,0 0.49196,0.101286 0.1881,0.09646 0.28939,0.255626 0.10128,0.15434 0.13987,0.327973 0.0386,0.173633 0.0386,0.32315 0,0.09646 -0.0145,0.192925 h -1.49999 q 0,0.32315 0.11575,0.540191 0.12058,0.217041 0.41962,0.217041 0.17363,0 0.27491,-0.06752 0.10611,-0.06752 0.15917,-0.168809 0.053,-0.101286 0.0675,-0.202572 h 0.45338 q -0.0289,0.192926 -0.13988,0.361735 -0.1061,0.16881 -0.30868,0.274919 -0.20257,0.101286 -0.51607,0.101286 z m -0.52572,-1.360124 h 1.04179 q 0.005,-0.03858 0.005,-0.09164 -0.005,-0.212218 -0.12058,-0.361735 -0.11576,-0.15434 -0.3955,-0.15434 -0.1881,0 -0.29903,0.09646 -0.11093,0.09646 -0.16399,0.236334 -0.0531,0.139871 -0.0675,0.274919 z m 2.79053,1.302246 V 94.99909 h 0.4389 v 0.270096 q 0.10129,-0.149517 0.2508,-0.236334 0.15434,-0.08682 0.41479,-0.08682 0.43409,0 0.61736,0.217041 0.18328,0.217041 0.18328,0.559483 v 1.422825 h -0.43408 v -1.389063 q 0,-0.236333 -0.14469,-0.38585 -0.13987,-0.149518 -0.34727,-0.149518 -0.22669,0 -0.38585,0.163987 -0.15434,0.163987 -0.15434,0.424436 v 1.336008 z m 6.19359,0 v -3.101276 h 0.93086 q 0.22187,0 0.43409,0.03859 0.21704,0.03858 0.38585,0.13987 0.16881,0.09646 0.27009,0.274919 0.10129,0.178456 0.10129,0.463021 0,0.284565 -0.10611,0.463021 -0.10129,0.178456 -0.2701,0.274919 -0.16881,0.09164 -0.38102,0.130224 -0.21222,0.03376 -0.43409,0.03376 h -0.45337 v 1.282954 z m 0.47749,-1.688097 h 0.42444 q 0.36173,0 0.55466,-0.106109 0.19292,-0.110932 0.19292,-0.390674 0,-0.284565 -0.19292,-0.395497 -0.18811,-0.115755 -0.55466,-0.115755 h -0.42444 z m 3.97702,1.745975 q -0.30868,0 -0.54984,-0.130225 -0.24116,-0.130225 -0.38103,-0.381028 -0.13987,-0.250803 -0.13987,-0.617361 0,-0.371381 0.13987,-0.622184 0.1447,-0.250803 0.38585,-0.376205 0.24116,-0.130224 0.54502,-0.130224 0.29903,0 0.54019,0.130224 0.24116,0.125402 0.38103,0.381028 0.14469,0.250803 0.14469,0.617361 0,0.371382 -0.14469,0.622185 -0.13987,0.250803 -0.38585,0.381027 -0.24116,0.125402 -0.53537,0.125402 z m 0,-0.303858 q 0.20739,0 0.34244,-0.115755 0.13987,-0.115755 0.2074,-0.303857 0.0675,-0.188103 0.0675,-0.405144 0,-0.217041 -0.0675,-0.405143 -0.0675,-0.192926 -0.2074,-0.308681 -0.13505,-0.120578 -0.34244,-0.120578 -0.21704,0 -0.35691,0.120578 -0.13987,0.120579 -0.2074,0.313504 -0.0675,0.188102 -0.0675,0.40032 0,0.212218 0.0675,0.40032 0.0675,0.188103 0.2074,0.308681 0.13987,0.115755 0.35691,0.115755 z m 3.09439,0.303858 q -0.22669,0 -0.41479,-0.06752 -0.18328,-0.06752 -0.29421,-0.217041 -0.10611,-0.154341 -0.10611,-0.405144 h 0.4389 q 0,0.217042 0.11576,0.303858 0.12058,0.08682 0.3135,0.08682 0.16399,0 0.30868,-0.09164 0.1447,-0.09164 0.1447,-0.265273 0,-0.130224 -0.0965,-0.192925 -0.0916,-0.06752 -0.23633,-0.101286 -0.1447,-0.03376 -0.30868,-0.06752 -0.15917,-0.03376 -0.30386,-0.09646 -0.14469,-0.06752 -0.23633,-0.192926 -0.0916,-0.125401 -0.0916,-0.352089 0,-0.149517 0.082,-0.284565 0.082,-0.13987 0.26045,-0.226687 0.18328,-0.08682 0.48231,-0.08682 0.24116,0 0.42444,0.05788 0.1881,0.05306 0.29421,0.192926 0.10611,0.139871 0.10611,0.390674 h -0.43891 q 0,-0.08682 -0.0338,-0.163987 -0.0289,-0.08199 -0.11575,-0.135048 -0.082,-0.05305 -0.25081,-0.05305 -0.15916,0 -0.27009,0.08682 -0.10611,0.08682 -0.10611,0.217041 0,0.125402 0.0916,0.192926 0.0916,0.0627 0.23633,0.09646 0.1447,0.03376 0.30868,0.06752 0.16399,0.03376 0.30868,0.09646 0.1447,0.0627 0.23634,0.183279 0.0916,0.120578 0.0916,0.332796 0,0.26045 -0.13987,0.41479 -0.13987,0.149517 -0.35692,0.217041 -0.21221,0.0627 -0.44372,0.0627 z m 2.23586,-0.05788 v -2.146295 h 0.43891 v 2.146295 z m -0.0193,-2.66237 v -0.438906 h 0.48231 v 0.438906 z m 2.65065,2.720248 q -0.27974,0 -0.43408,-0.135048 -0.14952,-0.135048 -0.14952,-0.47749 v -1.2926 H 99.1902 v -0.299035 h 0.39549 v -0.405143 l 0.43891,-0.197749 v 0.602892 h 0.48231 v 0.299035 h -0.48231 v 1.254015 q 0,0.192925 0.0675,0.260449 0.0675,0.06752 0.19293,0.06752 0.1254,0 0.23633,-0.03858 v 0.299034 q -0.17845,0.0627 -0.35209,0.0627 z m 1.55581,-0.05788 v -2.146295 h 0.43891 v 2.146295 z m -0.0193,-2.66237 v -0.438906 h 0.48231 v 0.438906 z m 2.82911,2.720248 q -0.30868,0 -0.54984,-0.130225 -0.24115,-0.130225 -0.38102,-0.381028 -0.13987,-0.250803 -0.13987,-0.617361 0,-0.371381 0.13987,-0.622184 0.14469,-0.250803 0.38585,-0.376205 0.24115,-0.130224 0.54501,-0.130224 0.29904,0 0.54019,0.130224 0.24116,0.125402 0.38103,0.381028 0.14469,0.250803 0.14469,0.617361 0,0.371382 -0.14469,0.622185 -0.13987,0.250803 -0.38585,0.381027 -0.24116,0.125402 -0.53537,0.125402 z m 0,-0.303858 q 0.2074,0 0.34244,-0.115755 0.13988,-0.115755 0.2074,-0.303857 0.0675,-0.188103 0.0675,-0.405144 0,-0.217041 -0.0675,-0.405143 -0.0675,-0.192926 -0.2074,-0.308681 -0.13504,-0.120578 -0.34244,-0.120578 -0.21704,0 -0.35691,0.120578 -0.13987,0.120579 -0.20739,0.313504 -0.0675,0.188102 -0.0675,0.40032 0,0.212218 0.0675,0.40032 0.0675,0.188103 0.20739,0.308681 0.13987,0.115755 0.35691,0.115755 z m 2.34198,0.24598 v -2.146295 h 0.4389 v 0.270096 q 0.10129,-0.149517 0.25081,-0.236334 0.15434,-0.08682 0.41478,-0.08682 0.43409,0 0.61737,0.217041 0.18328,0.217041 0.18328,0.559483 v 1.422825 h -0.43409 v -1.389063 q 0,-0.236333 -0.14469,-0.38585 -0.13987,-0.149518 -0.34727,-0.149518 -0.22668,0 -0.38585,0.163987 -0.15434,0.163987 -0.15434,0.424436 v 1.336008 z"
         id="text46"
         style="font-size:4.93889px;font-family:'Padauk Book';-inkscape-font-specification:'Padauk Book, ';letter-spacing:0.79375px;fill:#0000ff;stroke:#515151;stroke-width:0.265;stroke-linejoin:round"
         aria-label="E Chord: Open Position" />
    </g>
  </g>
</svg>
